<?xml version="1.0" encoding="UTF-8"?>
<svg id="Capa_1" data-name="Capa 1" xmlns="http://www.w3.org/2000/svg" viewBox="0 0 512 90">
  <defs>
    <style>
      .cls-1 {
        fill: #c8a95e;
      }

      .cls-2 {
        fill: #fff;
      }
    </style>
  </defs>
  <path class="cls-2" d="M0,8l33.995.01c.233,1.746-2.27.939-3.484.99-1.846.077-9.226-1.081-8.475,1.455l23.474,57.551,24.454-57.551c.751-2.537-6.629-1.377-8.475-1.455-1.228-.052-3.712.762-3.489-1h24l-10.105,1.618-30.412,73.41-2.694-2.317L10.102,9.621l-10.102-.621v-1Z"/>
  <path class="cls-2" d="M512,8v1h-12v72h12v1l-34.995-.01c-.235-1.744,2.264-.939,3.483-.99,2.829-.117,5.693.081,8.512,0V9c-2.819-.081-5.683.116-8.512,0-1.218-.05-3.717.755-3.483-.99l34.995-.01Z"/>
  <polygon class="cls-2" points="344 8 381 64 381 9 369.005 8.99 369 8 395 8 394.995 8.99 383 9 383 83 379.948 82.341 334 14 334 81 345.995 81.01 346 82 320 82 320.005 81.01 332 81 332 9 320.005 8.99 320 8 344 8"/>
  <path class="cls-2" d="M468,8v19l-5.562-9.938c-5.544-7.723-13.449-8.483-22.438-8.062v72l11.995.01.005.99h-35l.005-.99,11.995-.01V9c-7.084-.277-14.274-.309-19.899,4.601l-8.101,13.399V8h67Z"/>
  <path class="cls-2" d="M68,82l10.113-1.591L108.506,5.989l2.702,2.303,28.687,72.09,10.105,1.618h-34l12.012-1.512-10.899-27.897-1.574-.659-25.044,1.064-10.492,27.999c2.819.093,5.68-.112,8.507.005,1.228.051,3.712-.761,3.489,1h-24ZM116,51c-4.394-8.254-6.478-19.743-10.805-27.695-.504-.927-.964-2.202-2.185-2.304l-11.011,29.999h24Z"/>
  <path class="cls-2" d="M189,8l-.005.99-11.995.01v72h23.5c6.035,0,14.067-8.185,16.679-13.321,1.36-2.673,1.43-6.928,3.821-8.679v23h-67l.005-.99,11.995-.01V9l-11.995-.01-.005-.99h35Z"/>
  <path class="cls-2" d="M259.995,9.01c-.449.747-4.786,3.265-5.986,4.499-10.724,11.027-10.891,48.63-1.418,60.4,8.545,10.617,28.512,10.758,37.384.566,9.973-11.457,9.648-48.994-.536-60.414-6.155-6.903-14.77-6.934-23.069-6.175-.285.026-.509.07-.509.07-8.674,1.311-12.38,6.794-13.394,5.938-.499-.421.164-1.947.249-2.143.131-.302.623-.677,1.327-1.084,2.755-1.592,8.75-3.658,8.961-3.657,34.606-6.932,61.62,32.89,37.974,61.469-27.098,32.75-78.474,3.916-66.031-35.031,2.29-7.168,8.119-15.148,15.163-20.058,3.123-2.177,6.485-3.749,9.883-4.38Z"/>
  <polygon class="cls-1" points="276.591 40.748 289 40.951 279.09 48.842 281.986 61.938 271.743 55.13 261.014 61.938 263.906 48.852 254 40.951 266.658 40.296 271.5 28.323 276.591 40.748"/>
  <path class="cls-2" d="M253.72,10.862l-1.306,1.062s-5.911,3.995-2.303,1.467l3.609-2.529Z"/>
  <polyline class="cls-2" points="252.383 12.181 253.124 11.526 252.868 11.526 252.266 11.979"/>
</svg>